<svg xmlns="http://www.w3.org/2000/svg" version="1.1" xmlns:xlink="http://www.w3.org/1999/xlink" xmlns:svgjs="http://svgjs.dev/svgjs" width="1500" height="1500" viewBox="0 0 1500 1500"><rect width="1500" height="1500" fill="#7902f5"></rect><g transform="matrix(0.6666666666666666,0,0,0.6666666666666666,250.4784688995216,159.81160593792185)"><svg viewBox="0 0 209 247" data-background-color="#7902f5" preserveAspectRatio="xMidYMid meet" height="1772" width="1500" xmlns="http://www.w3.org/2000/svg" xmlns:xlink="http://www.w3.org/1999/xlink"><g id="tight-bounds" transform="matrix(1,0,0,1,-0.10000000000002274,-0.09999999999999432)"><svg viewBox="0 0 209.1999438202247 247.2" height="247.2" width="209.1999438202247"><g><svg></svg></g><g><svg viewBox="0 0 209.1999438202247 247.2" height="247.2" width="209.1999438202247"><g transform="matrix(1,0,0,1,0,47.215199999999996)"><svg viewBox="0 0 209.1999438202247 152.7696" height="152.7696" width="209.1999438202247"><g><svg viewBox="0 0 209.1999438202247 152.7696" height="152.7696" width="209.1999438202247"><g><svg viewBox="0 0 209.1999438202247 152.7696" height="152.7696" width="209.1999438202247"><g><svg viewBox="0 0 209.1999438202247 152.7696" height="152.7696" width="209.1999438202247"><g id="textblocktransform"><svg viewBox="0 0 209.1999438202247 152.7696" height="152.7696" width="209.1999438202247" id="textblock"><g><svg viewBox="0 0 209.1999438202247 152.7696" height="152.7696" width="209.1999438202247"><g transform="matrix(1,0,0,1,0,0)"><svg width="209.1999438202247" viewBox="4.5 -35 48.75 35.6" height="152.7696" data-palette-color="#e1e1e3"><path d="M9.25 0L4.5 0 4.5-35 9.25-35 9.25-20.05 26.5-20.05 26.5-35 31.25-35 31.25 0 26.5 0 26.5-15.95 9.25-15.95 9.25 0ZM43.45 0.6L43.45 0.6Q41.15 0.6 39.12-0.2 37.1-1 35.75-2.3L35.75-2.3 38.05-5.95Q39.05-4.9 40.45-4.2 41.85-3.5 43.3-3.5L43.3-3.5Q45.7-3.5 47.1-5.23 48.5-6.95 48.5-11.05L48.5-11.05 48.5-35 53.25-35 53.25-11.55Q53.25-5.2 50.55-2.3 47.85 0.6 43.45 0.6Z" opacity="1" transform="matrix(1,0,0,1,0,0)" fill="#e1e1e3" class="wordmark-text-0" data-fill-palette-color="primary" id="text-0"></path></svg></g></svg></g></svg></g></svg></g><g></g></svg></g></svg></g></svg></g><path d="M0 41.215L0 1 209.2 1 209.2 41.215 195.423 41.215 195.423 14.777 13.777 14.777 13.777 41.215 0 41.215M0 205.985L0 246.2 209.2 246.2 209.2 205.985 195.423 205.985 195.423 232.423 13.777 232.423 13.777 205.985 0 205.985" fill="#e1e1e3" stroke="transparent" data-fill-palette-color="tertiary"></path></svg></g><defs></defs></svg><rect width="209.1999438202247" height="247.2" fill="none" stroke="none" visibility="hidden"></rect></g></svg></g></svg>